<svg id="Capa_1" enable-background="new 0 0 450.823 450.823" height="512" viewBox="0 0 450.823 450.823" width="512" xmlns="http://www.w3.org/2000/svg"><path d="m169.059 225.412c0-31.079-25.274-56.353-56.353-56.353s-56.353 25.274-56.353 56.353 25.274 56.353 56.353 56.353 56.353-25.274 56.353-56.353zm-56.353 28.176c-15.533 0-28.176-12.644-28.176-28.176s12.644-28.176 28.176-28.176 28.176 12.644 28.176 28.176-12.643 28.176-28.176 28.176z"/><path d="m380.382 169.059h-197.235c-7.787 0-14.088 6.301-14.088 14.088v42.265 56.353h-56.353-84.53v-225.412h-28.176v338.117h28.176v-84.529h394.47v84.529h28.176v-154.97c.001-38.839-31.601-70.441-70.44-70.441zm42.265 112.706h-225.412v-84.529h183.147c23.306 0 42.265 18.959 42.265 42.265z"/></svg>