<svg height="512pt" viewBox="0 0 512 512" width="512pt" xmlns="http://www.w3.org/2000/svg"><path d="m156 346c5.519531 0 10-4.480469 10-10s-4.480469-10-10-10-10 4.480469-10 10 4.480469 10 10 10zm0 0"/><path d="m502 60h-38.792969l-13.160156-39.480469c-4.085937-12.273437-15.527344-20.519531-28.46875-20.519531h-331.15625c-12.941406 0-24.382813 8.246094-28.46875 20.519531l-13.160156 39.480469h-38.792969c-5.523438 0-10 4.476562-10 10v66c0 5.523438 4.476562 10 10 10h16v280.273438c-14.65625 1.964843-26 14.542968-26 29.726562v46c0 5.523438 4.476562 10 10 10h492c5.523438 0 10-4.476562 10-10v-46c0-15.183594-11.34375-27.761719-26-29.726562v-280.273438h16c5.523438 0 10-4.476562 10-10v-66c0-5.523438-4.476562-10-10-10zm-421.070312-33.160156c1.359374-4.09375 5.175781-6.839844 9.492187-6.839844h331.15625c4.316406 0 8.132813 2.746094 9.496094 6.84375l11.050781 33.15625h-372.25zm25.070312 119.160156v40h-60v-40zm140 0v20.335938c-22.851562 1.519531-45.035156 8.242187-64.835938 19.664062h-55.164062v-40zm140 0v40h-55.164062c-19.800782-11.421875-41.984376-18.144531-64.835938-19.664062v-20.335938zm20 280v-40h60v40zm-249.992188-120.148438c5.410157 1.09375 10.691407-2.398437 11.792969-7.808593 8.484375-41.746094 45.578125-72.042969 88.199219-72.042969 49.625 0 90 40.375 90 90v110h-43.429688c13.082032-13.742188 19.203126-32.277344 17.425782-50.523438l-4.019532-60.144531c-.289062-4.308593-3.308593-7.941406-7.488281-9.019531-4.183593-1.070312-8.582031.660156-10.910156 4.296875-3.089844 4.820313-6.777344 10.1875-10.183594 14.792969-9.21875-23.058594-21.246093-53.417969-21.398437-53.796875-1.507813-3.8125-5.195313-6.316407-9.296875-6.316407-4.101563 0-7.785157 2.503907-9.296875 6.316407-.148438.382812-12.324219 31.109375-21.566406 54.21875-3.832032-4.796875-8.082032-10.484375-11.648438-15.566407-2.4375-3.472656-6.792969-5.027343-10.878906-3.890624-4.082032 1.144531-7.003906 4.734374-7.285156 8.964843-4.6875 69.703125-4.332032 64.539063-4.332032 66.457031 0 17.121094 6.757813 32.6875 17.738282 44.210938h-43.429688v-50c0-5.523438-4.476562-10-10-10s-10 4.476562-10 10v50h-20v-110c0-71.941406 58.324219-130 130-130 71.429688 0 130 57.816406 130 130v110h-20v-110c0-60.652344-49.347656-110-110-110-52.09375 0-97.429688 37.035156-107.800781 88.058594-1.097657 5.414062 2.398437 10.691406 7.808593 11.792968zm55.683594 75.9375c0-1.824218 1.453125-22.9375 2.515625-38.628906 3.269531 3.820313 6.46875 7.175782 9.015625 9.082032 2.488282 1.859374 5.695313 2.464843 8.683594 1.628906 2.992188-.832032 5.425781-3.007813 6.585938-5.886719 4.667968-11.566406 12.203124-30.480469 18.207031-45.585937 6.003906 15.105468 13.539062 34.019531 18.207031 45.585937 1.164062 2.875 3.59375 5.050781 6.582031 5.886719 2.988281.832031 6.199219.234375 8.683594-1.625 2.300781-1.722656 4.976563-4.523438 7.707031-7.78125l2.171875 32.503906c.007813.105469.015625.21875.027344.328125 2.609375 26.050781-17.894531 48.703125-44.078125 48.703125-24.433594 0-44.308594-19.832031-44.308594-44.210938zm-165.691406 44.210938v-40h60v40zm108.019531-220c-12.382812 11.46875-22.761719 24.949219-30.707031 40h-77.3125v-40zm-48.019531 160h-60v-40h60zm.335938-60h-60.335938v-40.011719h68.539062c-4.566406 12.875-7.308593 26.265625-8.203124 40.011719zm299.664062 20h60v40h-60zm-.335938-20c-.894531-13.742188-3.636718-27.125-8.203124-40h68.539062v40zm60.335938-60h-77.300781c-7.011719-13.269531-15.945313-25.382812-26.628907-36.070312-1.335937-1.339844-2.710937-2.644532-4.097656-3.929688h108.027344zm26 210v36h-472v-36c0-5.515625 4.484375-10 10-10h452c5.515625 0 10 4.484375 10 10zm-26-270h-60v-40h60zm26-60h-472v-46h436 36zm0 0"/></svg>