<svg height="511pt" viewBox="0 -45 511.99969 511" width="511pt" xmlns="http://www.w3.org/2000/svg"><path d="m96.03125 149.398438c41.050781 0 74.449219-33.398438 74.449219-74.449219s-33.398438-74.449219-74.449219-74.449219-74.449219 33.398438-74.449219 74.449219 33.398438 74.449219 74.449219 74.449219zm0-118.664063c24.378906 0 44.210938 19.835937 44.210938 44.214844 0 24.378906-19.832032 44.210937-44.210938 44.210937s-44.210938-19.832031-44.210938-44.210937c0-24.378907 19.832032-44.214844 44.210938-44.214844zm0 0"/><path d="m176.941406 180.90625h-161.824218c-4.976563 0-9.636719 2.449219-12.457032 6.550781-2.820312 4.101563-3.441406 9.328125-1.660156 13.976563l80.914062 211.109375c2.242188 5.847656 7.855469 9.707031 14.117188 9.707031s11.875-3.859375 14.117188-9.707031l80.910156-211.109375c1.785156-4.648438 1.160156-9.875-1.660156-13.976563-2.820313-4.101562-7.480469-6.550781-12.457032-6.550781zm-80.910156 183.984375-58.925781-153.75h117.851562zm0 0"/><path d="m415.96875 149.398438c41.050781 0 74.449219-33.398438 74.449219-74.449219s-33.398438-74.449219-74.449219-74.449219-74.449219 33.398438-74.449219 74.449219 33.398438 74.449219 74.449219 74.449219zm0-118.664063c24.378906 0 44.210938 19.835937 44.210938 44.214844 0 24.378906-19.832032 44.210937-44.210938 44.210937s-44.210938-19.832031-44.210938-44.210937c0-24.378907 19.832032-44.214844 44.210938-44.214844zm0 0"/><path d="m510.996094 401.71875-80.910156-211.105469c-2.242188-5.847656-7.855469-9.707031-14.117188-9.707031s-11.875 3.859375-14.117188 9.707031l-80.910156 211.105469c-1.785156 4.648438-1.160156 9.878906 1.65625 13.976562 2.820313 4.101563 7.480469 6.554688 12.457032 6.554688h161.824218c4.980469 0 9.640625-2.453125 12.457032-6.554688 2.824218-4.097656 3.445312-9.328124 1.660156-13.976562zm-153.953125-9.707031 58.925781-153.746094 58.925781 153.746094zm0 0"/><path d="m256 .5c-8.351562 0-15.117188 6.769531-15.117188 15.117188v391.511718c0 8.351563 6.765626 15.121094 15.117188 15.121094 8.347656 0 15.117188-6.769531 15.117188-15.121094v-391.511718c0-8.347657-6.769532-15.117188-15.117188-15.117188zm0 0"/></svg>