<svg id="Capa_1" enable-background="new 0 0 512.005 512.005" height="512" viewBox="0 0 512.005 512.005" width="512" xmlns="http://www.w3.org/2000/svg"><g><path d="m511.774 499.879c-6.511-29.953-53.302-246.075-60-276.001-.643-2.958-2.592-5.466-5.3-6.819l-56.295-28.147-28.689-86.07c-1.898-5.694-8.362-8.449-13.787-5.866l-70.408 33.528-11.457-62.308c-.872-4.745-5.01-8.191-9.835-8.191h-91.857l-57.072-57.074c-2.722-2.72-6.764-3.641-10.395-2.36-3.63 1.279-6.205 4.529-6.619 8.355l-24.123 222.929-30.408 15.204c-2.999 1.5-5.047 4.403-5.453 7.732-.822 6.739-29.985 245.879-30 246.001-.742 6.039 4.052 11.201 9.939 11.201.007 0 .014-.001.021-.001h190.967c5.522 0 10-4.468 10-9.99s-4.478-10-10-10h-58.34l26.352-110.679 58.11-52.827 86.099 53.813 26.118 109.693h-48.339c-5.522 0-10 4.478-10 10s4.478 9.99 10 9.99h210.977c.005 0 .009.001.014.001 6.227.001 11.151-5.785 9.78-12.114zm-404.076-468.038 38.162 38.162-22.929 22.929c-3.905 3.905-3.905 10.237 0 14.143 3.907 3.905 10.236 3.904 14.143 0l27.071-27.071h83.528l10.923 59.403-34.853 16.597h-63.741c-2.652 0-5.195 1.054-7.071 2.929l-58.851 58.851-6.875 3.437zm-73.553 460.162 35.857-35.857 35.857 35.857zm297.586-118.317c-.609-2.557-2.2-4.771-4.429-6.164l-96-60c-3.797-2.372-8.71-1.934-12.026 1.081l-66 60c-1.489 1.354-2.535 3.125-3.002 5.083l-25.854 108.591-47.346-47.346c-3.906-3.904-10.236-3.904-14.143 0l-39.491 39.492 14.438-118.421h32.125c5.522 0 10-4.478 10-10s-4.478-10-10-10h-29.686l8.962-73.458 48.749-24.374 24.903 24.903c3.907 3.905 10.236 3.904 14.143 0 3.905-3.905 3.905-10.237 0-14.143l-22.929-22.929 50-50h57.715l27.071 27.071c3.907 3.905 10.236 3.904 14.143 0 3.905-3.905 3.905-10.237 0-14.143l-19.988-19.988 103.006-49.05 24.469 73.408-25.63 25.63c-3.905 3.905-3.905 10.237 0 14.143 3.907 3.905 10.236 3.904 14.143 0l24.904-24.904 49.271 24.635 15.917 73.197h-37.163c-5.522 0-10 4.478-10 10s4.478 10 10 10h41.511l33.466 153.967-69.43-46.287c-3.966-2.644-9.247-2.123-12.618 1.249l-47.345 47.345zm137.244 118.317h-92.83l37.132-37.132z"/><circle cx="246.003" cy="502.003" r="10"/></g></svg>