<?xml version="1.0" encoding="iso-8859-1"?>
<!-- Generator: Adobe Illustrator 18.0.0, SVG Export Plug-In . SVG Version: 6.00 Build 0)  -->
<!DOCTYPE svg PUBLIC "-//W3C//DTD SVG 1.1//EN" "http://www.w3.org/Graphics/SVG/1.1/DTD/svg11.dtd">
<svg version="1.1" id="Capa_1" xmlns="http://www.w3.org/2000/svg" xmlns:xlink="http://www.w3.org/1999/xlink" x="0px" y="0px"
	 viewBox="0 0 251.627 251.627" style="enable-background:new 0 0 251.627 251.627;" xml:space="preserve">
<g>
	<polygon points="135.203,92.451 116.423,92.451 116.423,71.519 103.133,71.519 103.133,123.994 116.423,123.994 116.423,101.318 
		135.203,101.318 135.203,123.994 148.495,123.994 148.495,71.519 135.203,71.519 	"/>
	<path d="M125.814,29.469c-37.654,0-68.288,30.634-68.288,68.288s30.634,68.288,68.288,68.288s68.288-30.634,68.288-68.288
		S163.468,29.469,125.814,29.469z M125.814,156.044c-32.14,0-58.288-26.148-58.288-58.288s26.148-58.288,58.288-58.288
		s58.288,26.148,58.288,58.288S157.953,156.044,125.814,156.044z"/>
	<path d="M125.814,0C70.087,0,24.751,45.336,24.751,101.063c0,54.208,91.91,144.608,95.822,148.43
		c1.457,1.423,3.349,2.135,5.241,2.135c1.892,0,3.784-0.711,5.241-2.135c3.913-3.822,95.822-94.221,95.822-148.43
		C226.876,45.336,181.54,0,125.814,0z M125.814,233.532c-28.179-28.644-86.063-95.199-86.063-132.47
		C39.751,53.607,78.359,15,125.814,15s86.063,38.607,86.063,86.063C211.876,138.333,153.992,204.888,125.814,233.532z"/>
</g>
<g>
</g>
<g>
</g>
<g>
</g>
<g>
</g>
<g>
</g>
<g>
</g>
<g>
</g>
<g>
</g>
<g>
</g>
<g>
</g>
<g>
</g>
<g>
</g>
<g>
</g>
<g>
</g>
<g>
</g>
</svg>
