<svg width="97" height="133" viewBox="0 0 97 133" fill="none" xmlns="http://www.w3.org/2000/svg">
<path d="M38.3521 0.837184C21.4021 4.53718 7.4021 17.2872 2.3021 33.6372C0.152101 40.5372 -0.147899 45.2372 0.0521013 69.1372C0.252101 90.8872 0.302101 91.1872 1.5521 95.8872C3.9521 104.837 8.3021 112.337 14.6021 118.487C20.8521 124.587 27.4021 128.287 36.3021 130.687C40.5521 131.837 42.2021 132.037 48.4521 132.037C54.4021 132.037 56.4521 131.837 59.9521 130.937C77.8021 126.187 90.8521 113.087 95.5521 95.1372C96.5521 91.4372 96.6021 89.4372 96.8021 69.2872C97.0021 48.1372 96.8021 42.7872 95.4521 36.4872C95.1021 34.8372 94.6021 33.8872 94.1521 33.8872C93.3521 33.8872 93.2021 33.0372 93.9521 32.7872C94.2021 32.6872 93.7021 30.9372 92.7521 28.8372C87.0021 15.5372 75.4021 5.53718 60.9021 1.33718C55.5021 -0.212816 44.3021 -0.462816 38.3521 0.837184ZM57.4521 3.08718C71.6021 6.13718 83.1521 14.9872 89.4521 27.6372C94.0521 36.9372 94.1021 37.1872 94.3521 63.9372C94.4521 77.8872 94.3021 88.3372 94.0521 89.9372C93.6521 91.8872 93.7021 92.7372 94.1021 92.9872C94.5521 93.2872 94.5021 93.4872 94.0021 93.8372C93.6521 94.0872 92.7021 96.1872 91.9521 98.5372C87.3021 113.087 75.2521 124.237 59.7521 128.487C56.3521 129.437 54.5021 129.637 47.9521 129.587C41.0521 129.537 39.7021 129.387 35.8021 128.237C19.7521 123.337 8.3021 111.587 3.8521 95.3872C2.7021 91.1872 2.7021 90.8372 2.7021 65.8872C2.7021 41.3372 2.7521 40.5372 3.8521 36.6372C7.7521 22.5872 17.6521 11.1872 30.7021 5.83718C33.2021 4.78718 36.8021 3.63718 38.7021 3.23718C43.2021 2.23718 53.2521 2.18718 57.4521 3.08718Z" fill="#ECC140"/>
<path d="M69.7021 13.8872C69.5021 14.1872 69.5521 14.6872 69.8521 14.9872C70.1521 15.2872 70.4521 15.2872 70.7021 14.8872C70.9021 14.5872 70.8521 14.0872 70.5521 13.7872C70.2521 13.4872 69.9521 13.4872 69.7021 13.8872Z" fill="#ECC140"/>
<path d="M30.7021 14.3372C30.4021 14.8872 31.1521 15.4872 31.6521 15.0372C32.1021 14.5872 32.0021 13.8872 31.5021 13.8872C31.2021 13.8872 30.9021 14.0872 30.7021 14.3372Z" fill="#ECC140"/>
<path d="M58.8021 19.1872C58.4021 19.5872 58.8521 20.3872 59.5021 20.3872C59.7521 20.3872 59.9521 20.0372 59.9521 19.6372C59.9521 18.8872 59.3521 18.6372 58.8021 19.1872Z" fill="#ECC140"/>
<path d="M24.7021 21.3872C18.2521 22.7372 16.9521 30.9872 22.6021 34.3872C27.8521 37.6372 34.5521 32.3872 32.9521 26.3872C32.0021 22.9372 28.2521 20.6372 24.7021 21.3872ZM29.6021 25.4372C31.1521 27.0872 31.3021 28.2872 30.2021 30.3872C29.2521 32.1872 28.0521 32.8872 25.8521 32.8872C23.2521 32.8372 21.4521 30.8872 21.4521 28.1372C21.4521 26.1872 22.3021 24.8872 24.1021 24.1372C26.2021 23.2372 27.9021 23.6372 29.6021 25.4372Z" fill="#ECC140"/>
<path d="M40.9521 24.6372C40.9521 25.0872 41.2021 25.3872 41.5021 25.2872C41.8021 25.1872 42.0521 24.8872 42.0521 24.6372C42.0521 24.3872 41.8021 24.0872 41.5021 23.9872C41.2021 23.8872 40.9521 24.1872 40.9521 24.6372Z" fill="#ECC140"/>
<path d="M54.5521 31.9372C54.6521 32.2372 54.9521 32.4372 55.2021 32.4372C55.4521 32.4372 55.7521 32.2372 55.8521 31.9372C55.9521 31.6372 55.6521 31.3872 55.2021 31.3872C54.7521 31.3872 54.4521 31.6372 54.5521 31.9372Z" fill="#ECC140"/>
<path d="M69.9521 34.3872C69.9521 34.6372 70.3021 34.8872 70.7021 34.8872C71.1021 34.8872 71.4521 34.6372 71.4521 34.3872C71.4521 34.0872 71.1021 33.8872 70.7021 33.8872C70.3021 33.8872 69.9521 34.0872 69.9521 34.3872Z" fill="#ECC140"/>
<path d="M43.7021 57.7872L39.2021 79.1372L43.8021 79.2872C46.3521 79.3372 50.5521 79.3372 53.1021 79.2872L57.7521 79.1372L53.2521 57.7872C50.7521 45.9872 48.6021 36.3872 48.4521 36.3872C48.3021 36.3872 46.1521 45.9872 43.7021 57.7872Z" fill="#ECC140"/>
<path d="M84.9521 44.1372C84.9521 44.5372 85.2021 44.8872 85.4521 44.8872C85.7521 44.8872 85.9521 44.5372 85.9521 44.1372C85.9521 43.7372 85.7521 43.3872 85.4521 43.3872C85.2021 43.3872 84.9521 43.7372 84.9521 44.1372Z" fill="#ECC140"/>
<path d="M70.5021 45.5372C70.4521 45.7372 69.2021 51.6372 67.7021 58.6872C66.2021 65.7372 64.9521 71.5872 64.9521 71.6872C64.9521 71.7872 67.5521 71.8872 70.7521 71.8872C76.0021 71.8872 76.5021 71.7872 76.2521 70.9872C76.1021 70.5372 74.8521 64.7372 73.4521 58.1372C70.9521 46.3872 70.5521 44.7372 70.5021 45.5372Z" fill="#ECC140"/>
<path d="M23.4021 58.7872L20.6521 71.6372L26.1021 71.7872C29.1021 71.8372 31.6521 71.8372 31.7521 71.7372C31.9521 71.5372 26.6521 46.4372 26.3521 46.1372C26.2521 45.9872 24.9021 51.6872 23.4021 58.7872Z" fill="#ECC140"/>
<path d="M9.9521 47.1372C9.9521 47.5372 10.2021 47.8872 10.4521 47.8872C10.7521 47.8872 10.9521 47.5372 10.9521 47.1372C10.9521 46.7372 10.7521 46.3872 10.4521 46.3872C10.2021 46.3872 9.9521 46.7372 9.9521 47.1372Z" fill="#ECC140"/>
<path d="M24.9521 83.3872V89.8872H26.2021H27.4521V83.3872V76.8872H26.2021H24.9521V83.3872Z" fill="#ECC140"/>
<path d="M69.4521 83.3872V89.8872H70.7021H71.9521V83.3872V76.8872H70.7021H69.4521V83.3872Z" fill="#ECC140"/>
<path d="M6.8021 86.4872C8.1021 103.537 19.6521 118.137 35.9521 123.487C42.2021 125.487 51.1521 125.987 57.2021 124.637C75.6521 120.537 89.1521 105.137 90.6021 86.4872C90.8521 83.5372 90.8021 83.3872 89.7021 83.3872C88.7021 83.3872 88.5521 83.6872 88.2521 86.4872C88.0521 88.2372 87.5521 91.1372 87.1021 92.9872L86.3021 96.3872H76.3521H66.4521V97.6372V98.8872L75.9521 98.9872L85.4521 99.1372L83.2521 102.887C82.0521 104.937 80.2021 107.587 79.2021 108.737L77.3521 110.887H60.6521H43.9521V112.137V113.387L59.2021 113.237C69.1021 113.187 74.4021 113.287 74.3021 113.637C73.9521 114.587 67.8021 118.337 64.1021 119.887C51.1021 125.287 36.7521 123.637 25.4521 115.387L22.7021 113.387H27.3521C31.9021 113.387 31.9521 113.387 31.9521 112.137V110.887H26.0021H20.0521L17.7521 107.987C15.7021 105.487 12.4521 100.037 12.4521 99.1872C12.4521 99.0372 22.1521 98.8872 33.9521 98.8872H55.4521V97.6372V96.3872L33.4021 96.2872L11.3021 96.1372L10.6021 94.1872C10.2521 93.0872 9.7021 90.2372 9.3521 87.7872C8.8021 83.7372 8.7021 83.3872 7.6521 83.3872C6.6021 83.3872 6.5521 83.5372 6.8021 86.4872Z" fill="#ECC140"/>
<path d="M46.9521 87.1372C46.9521 89.5372 47.0521 89.8872 47.9521 89.8872C48.8521 89.8872 48.9521 89.5372 48.9521 87.1372C48.9521 84.7372 48.8521 84.3872 47.9521 84.3872C47.0521 84.3872 46.9521 84.7372 46.9521 87.1372Z" fill="#ECC140"/>
<path d="M36.4521 104.887C36.4521 105.887 36.8021 105.887 53.4521 105.887C70.1021 105.887 70.4521 105.887 70.4521 104.887C70.4521 103.887 70.1021 103.887 53.4521 103.887C36.8021 103.887 36.4521 103.887 36.4521 104.887Z" fill="#ECC140"/>
</svg>
